<svg width="254" height="115" viewBox="0 0 254 115" fill="none" xmlns="http://www.w3.org/2000/svg">
<path fill-rule="evenodd" clip-rule="evenodd" d="M90.5976 87.8946C92.1134 81.5332 93.6814 74.9532 95.4202 69.3799C94.4224 72.1888 93.3714 75.7255 92.2658 79.4458L92.2657 79.4461C88.9771 90.5127 85.2054 103.205 80.9135 103.205C77.2798 103.205 73.7891 94.3244 70.7303 85.0168C71.0418 86.2894 71.3517 87.5705 71.6606 88.8476L71.6606 88.8477C72.1439 90.8456 72.6247 92.8334 73.1052 94.7623C74.449 100.156 75.792 105.096 77.2047 108.678C77.9132 110.475 78.6154 111.867 79.3069 112.794C80.0223 113.753 80.5625 114 80.9134 114C81.3153 114 81.8541 113.759 82.5334 112.937C83.2029 112.126 83.8838 110.894 84.5706 109.276C85.9408 106.048 87.2328 101.531 88.5267 96.4174C89.2133 93.7038 89.8993 90.8248 90.5964 87.8996L90.5967 87.8983L90.597 87.8971L90.5973 87.8959L90.5976 87.8946ZM91.467 39.0057C92.5718 45.1453 93.693 51.3767 94.8649 57.1431C94.0676 54.1621 93.2374 50.7275 92.3737 47.1543C89.0598 33.4435 85.2525 17.6919 80.9135 17.6919C76.8814 17.6919 73.4502 31.827 70.2481 45.0181L70.2459 45.0271C69.895 46.4726 69.5469 47.9067 69.201 49.3097C69.2635 49.0095 69.3257 48.7079 69.3877 48.4052C70.4517 43.2071 71.4511 37.5998 72.4267 32.1256L72.4276 32.1208L72.4287 32.1147C72.7588 30.2624 73.0862 28.4253 73.4125 26.6246C74.7077 19.4771 75.9831 12.9131 77.3461 8.14177C78.0297 5.74905 78.7185 3.86905 79.4137 2.60585C79.7617 1.9735 80.0838 1.54713 80.3663 1.28954C80.6428 1.03747 80.8198 1 80.9134 1C81.2084 1 81.7473 1.24304 82.4837 2.36878C83.1837 3.43889 83.8909 5.0519 84.5987 7.15007C86.0098 11.3331 87.3439 17.1975 88.6619 23.8755C89.5989 28.6236 90.5269 33.7807 91.4668 39.0042L91.4669 39.0047L91.467 39.0057ZM97.7497 65.609C95.46 71.8059 93.4905 80.0709 91.5856 88.0643L91.5856 88.0644C88.2787 101.941 85.1668 115 80.9134 115C76.9574 115 73.8525 102.163 70.6843 89.0652C68.484 79.9683 66.2532 70.7454 63.6855 65.609C63.6869 65.6057 63.6883 65.6024 63.6897 65.5991H50.1035C48.0455 68.9533 46.2583 73.3097 44.5275 77.5285C41.4003 85.151 38.4576 92.3241 34.4353 92.3241C30.6943 92.3241 27.7581 85.273 24.7622 78.0783C22.7776 73.3123 20.7667 68.4833 18.4783 65.5991H0L0 64.5991H18.5497C21.2663 60.4343 23.4211 53.4118 25.4771 46.711C28.261 37.6381 30.8638 29.1551 34.4353 29.1551C38.7404 29.1551 41.9796 39.6135 45.3547 50.5106L45.3547 50.5107L45.3547 50.5107C46.8764 55.4237 48.4257 60.426 50.1128 64.5991H64.0871C66.9729 57.0264 69.2591 44.1989 71.4403 31.9609L71.4404 31.9607C74.3842 15.4433 77.1367 0 80.9134 0C85.4659 0 88.8913 19.0396 92.4604 38.878C94.0747 47.8509 95.7184 56.9872 97.509 64.5991H111.443C114.179 58.3642 116.346 47.7741 118.412 37.6716C121.196 24.0622 123.799 11.3378 127.37 11.3378C131.676 11.3378 134.915 27.0252 138.29 43.3708L138.29 43.3711C139.819 50.7781 141.377 58.3203 143.074 64.5991H157.022C159.908 57.0264 162.194 44.1987 164.375 31.9607C167.319 15.4433 170.071 0 173.848 0C178.401 0 181.826 19.0396 185.395 38.8779V38.878C187.009 47.8509 188.653 56.9872 190.444 64.5991H204.42C207.136 60.4343 209.291 53.4118 211.347 46.7112C214.131 37.6382 216.734 29.1553 220.305 29.1553C224.61 29.1553 227.85 39.6136 231.225 50.5106L231.225 50.5108C232.746 55.4238 234.296 60.426 235.983 64.5991H254V65.5991H235.973C233.916 68.9532 232.128 73.3095 230.398 77.5282L230.397 77.5286C227.27 85.1512 224.327 92.3243 220.305 92.3243C216.564 92.3243 213.628 85.2732 210.632 78.0784C208.647 73.3123 206.637 68.4833 204.348 65.5991H190.682C190.683 65.6024 190.684 65.6057 190.684 65.609C188.395 71.8059 186.425 80.0709 184.52 88.0643C181.214 101.941 178.102 115 173.848 115C169.892 115 166.787 102.163 163.619 89.0652L163.619 89.0648L163.619 89.0647C161.419 79.968 159.188 70.7453 156.62 65.609C156.622 65.6057 156.623 65.6024 156.624 65.5991H143.206C141.077 70.6817 139.24 77.3987 137.463 83.8978C134.336 95.3317 131.393 106.091 127.37 106.091C123.629 106.091 120.693 95.5146 117.697 84.7225C115.65 77.3457 113.574 69.8682 111.194 65.5991H97.7473C97.7481 65.6024 97.7489 65.6057 97.7497 65.609ZM114.372 64.5991C114.48 64.5162 114.591 64.431 114.705 64.3438L114.707 64.342C117.538 62.1659 122.028 58.7154 127.37 58.7154C132.786 58.7154 137.055 60.9321 139.569 63.4717C139.007 62.3799 138.425 61.147 137.824 59.8725L137.752 59.7196C136.789 57.6785 135.766 55.509 134.658 53.5047C133.519 51.4434 132.321 49.6177 131.058 48.3177C129.788 47.011 128.568 46.3525 127.371 46.3525C126.224 46.3525 125.037 47.0689 123.762 48.5336C122.502 49.9803 121.309 51.9825 120.137 54.1758C119.639 55.1054 119.134 56.0934 118.631 57.0761L118.631 57.0764L118.631 57.0767C117.986 58.3375 117.346 59.5896 116.733 60.6984C115.921 62.168 115.072 63.5537 114.167 64.5991H114.372ZM160.152 64.5991C160.251 64.5116 160.353 64.422 160.457 64.3305L160.458 64.3293L160.459 64.3289C163.453 61.6878 168.2 57.5 173.849 57.5C179.722 57.5 184.321 60.3293 186.95 63.509C186.305 62.1007 185.633 60.4686 184.934 58.7668L184.856 58.5781C183.84 56.1031 182.755 53.463 181.58 51.0228C180.37 48.5119 179.094 46.2764 177.743 44.6811C176.375 43.0649 175.081 42.282 173.849 42.282C172.671 42.282 171.408 43.1355 170.031 44.9502C168.685 46.7247 167.415 49.1745 166.173 51.8405C165.642 52.9805 165.106 54.1818 164.575 55.3738L164.575 55.3742C163.896 56.8981 163.224 58.407 162.575 59.7537C161.683 61.6063 160.756 63.3326 159.77 64.5991H160.152ZM66.8346 64.5991C67.8204 63.3326 68.7474 61.6062 69.6396 59.7535C70.2881 58.4066 70.9606 56.8976 71.6397 55.3735C72.1709 54.1815 72.7062 52.9803 73.2374 51.8403C74.4795 49.1743 75.7498 46.7245 77.0959 44.95C78.4725 43.1353 79.7353 42.2817 80.9136 42.2817C82.1457 42.2817 83.4392 43.0647 84.8078 44.6809C86.1586 46.2762 87.4349 48.5117 88.6444 51.0226C89.8197 53.4627 90.9042 56.1027 91.9209 58.5776L91.921 58.5779L91.9985 58.7666C92.6981 60.4695 93.3708 62.1027 94.0154 63.5117C91.3868 60.3309 86.7875 57.5 80.9128 57.5C75.2638 57.5 70.5162 61.6878 67.5222 64.3289C67.4178 64.4209 67.3156 64.5111 67.2156 64.5991H66.8346ZM140.48 70.0544C139.055 74.2835 137.746 79.0682 136.479 83.7019L136.479 83.7023L136.479 83.7026C135.82 86.1101 135.173 88.4767 134.526 90.7035C133.303 94.9155 132.086 98.6196 130.8 101.259C130.156 102.581 129.523 103.576 128.906 104.228C128.289 104.879 127.783 105.091 127.37 105.091C127.005 105.091 126.502 104.874 125.853 104.116C125.215 103.37 124.56 102.243 123.895 100.772C122.567 97.8387 121.301 93.7852 120.031 89.3408C119.577 87.7558 119.123 86.12 118.666 84.4746C118.442 83.668 118.218 82.859 117.992 82.0527C120.824 89.4738 124.033 96.3727 127.37 96.3727C131.428 96.3727 134.995 85.9151 138.105 76.7969L138.106 76.7947C138.929 74.381 139.72 72.0614 140.48 70.0544ZM140.307 57.5757C139.272 53.0739 138.278 48.2606 137.299 43.5177L137.299 43.5166L137.298 43.5161L137.298 43.5156L137.298 43.5152C136.41 39.2144 135.534 34.9715 134.65 31.0712C133.404 25.5702 132.146 20.7546 130.819 17.3267C130.153 15.6073 129.493 14.2997 128.847 13.4389C128.181 12.5511 127.684 12.3378 127.37 12.3378C127.136 12.3378 126.652 12.5409 125.969 13.6216C125.326 14.6399 124.682 16.1673 124.038 18.1314C122.754 22.0468 121.551 27.441 120.326 33.3317C120.017 34.8163 119.707 36.3316 119.394 37.8601L119.394 37.8603L119.394 37.8605L119.394 37.863L119.394 37.8643C118.519 42.1382 117.624 46.5147 116.676 50.6084C116.878 49.8884 117.08 49.1611 117.284 48.4303L117.284 48.4302C120.312 37.5614 123.557 25.9149 127.37 25.9149C131.473 25.9149 135.073 38.8934 138.207 50.1903L138.207 50.1908L138.207 50.191C138.932 52.8029 139.631 55.3248 140.307 57.5757ZM47.0066 69.2699C46.4128 70.3642 45.8006 71.5609 45.1695 72.7944L45.1693 72.7949C42.0594 78.8737 38.4927 85.8454 34.434 85.8454C31.1644 85.8454 28.0171 81.4289 25.2277 76.5961C25.3838 76.9696 25.5394 77.3433 25.6946 77.716L25.6961 77.7196C26.1521 78.8145 26.6042 79.9001 27.0529 80.9463C28.323 83.9074 29.5736 86.5733 30.8758 88.4914C32.2226 90.4751 33.4004 91.3241 34.4353 91.3241C35.5176 91.3241 36.6744 90.5597 37.9569 88.8047C39.2138 87.0846 40.4141 84.6544 41.6348 81.8522C42.2713 80.391 42.9122 78.8286 43.5668 77.2329L43.5668 77.2328L43.5668 77.2327L43.5669 77.2326L43.5669 77.2325L43.567 77.2324L43.567 77.2323L43.5671 77.2322C44.6611 74.5652 45.7933 71.8053 47.0066 69.2699ZM47.2415 59.6915C46.6064 58.2654 45.9499 56.6877 45.2715 55.0574L45.2714 55.0571C42.1376 47.5258 38.5372 38.8735 34.434 38.8735C30.621 38.8735 27.3763 46.6379 24.3483 53.8837C24.2045 54.2277 24.0612 54.5706 23.9184 54.9114C24.7942 52.3459 25.6267 49.6328 26.4381 46.9881L26.4382 46.988L26.4382 46.9879L26.4383 46.9874L26.4389 46.9855L26.4391 46.985C26.7508 45.9691 27.0594 44.9633 27.3662 43.9798C28.5922 40.0498 29.7852 36.4895 31.05 33.9178C31.6832 32.6302 32.3053 31.6525 32.9145 31.0094C33.5234 30.3667 34.0236 30.1551 34.4353 30.1551C34.9077 30.1551 35.4376 30.3616 36.0477 30.9033C36.6638 31.4505 37.3003 32.2878 37.9516 33.4093C39.2541 35.652 40.4994 38.8233 41.7436 42.4852C42.617 45.0557 43.4888 47.8695 44.3752 50.7303L44.3754 50.7308L44.3754 50.7308L44.3754 50.731L44.3757 50.7318C45.3086 53.7426 46.2576 56.8054 47.2415 59.6915ZM45.81 58.9148L45.9073 59.1399C45.3418 58.0144 44.788 56.853 44.2363 55.6962L44.2359 55.6954L44.2358 55.6953C41.3531 49.6504 38.531 43.7329 34.4348 43.7329C30.9676 43.7329 28.5241 48.8205 25.9917 54.093L25.9917 54.0931C24.8086 56.5564 23.6061 59.06 22.2708 61.104C22.5331 60.5677 22.7928 60.0121 23.0502 59.4446C23.7799 57.8365 24.5278 56.0474 25.2824 54.2422C25.7926 53.0214 26.306 51.7933 26.8188 50.6089C28.1108 47.6252 29.4203 44.8669 30.7769 42.8634C31.4545 41.8626 32.1142 41.0955 32.7514 40.5865C33.3846 40.0806 33.9386 39.8735 34.434 39.8735C34.9422 39.8735 35.508 40.0784 36.1494 40.5668C36.7945 41.058 37.4639 41.7977 38.1508 42.7625C39.5259 44.6941 40.8565 47.3622 42.1455 50.2633C42.9066 51.9764 43.6312 53.7182 44.3377 55.4165L44.3385 55.4182L44.339 55.4194C44.8361 56.6144 45.3243 57.788 45.81 58.9148ZM24.1268 71.511C23.1581 70.0526 22.2076 68.6214 21.2561 67.3811C21.6785 68.0871 22.1098 68.8529 22.5469 69.6466C22.9209 70.3256 23.3021 71.0306 23.6912 71.7503C24.5369 73.3145 25.42 74.9479 26.3477 76.5331C27.7012 78.8459 29.1019 80.971 30.5262 82.5084C31.9794 84.0771 33.2839 84.8454 34.434 84.8454C35.5646 84.8454 36.8192 84.0741 38.2098 82.4698C39.5722 80.898 40.894 78.7254 42.1808 76.3581C42.9124 75.0121 43.595 73.677 44.2636 72.3694L44.266 72.3646C44.4816 71.9428 44.6958 71.524 44.9096 71.1086C42.0064 75.7545 38.4629 80.9864 34.4348 80.9864C30.4198 80.9864 27.1833 76.1132 24.1268 71.511ZM46.0872 61.6436C45.6248 60.7985 45.1769 59.9228 44.7394 59.0385C44.252 58.0532 43.7834 57.0703 43.3201 56.0985L43.3197 56.0977L43.3197 56.0975L43.3196 56.0973C42.6763 54.7479 42.0431 53.4199 41.3839 52.1366C40.2599 49.9487 39.1398 48.0571 37.948 46.7205C36.7553 45.3829 35.6109 44.7329 34.4348 44.7329C33.3352 44.7329 32.2235 45.4688 31.0111 47.0597C29.8168 48.6268 28.7004 50.7921 27.5422 53.1791C27.3305 53.6155 27.1175 54.059 26.9028 54.5061L26.9009 54.5099L26.9007 54.5104L26.9005 54.5109C25.9596 56.4702 24.9856 58.4983 23.9422 60.2934C23.8046 60.5301 23.6649 60.7646 23.5227 60.996C23.9402 60.47 24.3611 59.9211 24.7878 59.3646L24.788 59.3643C27.5557 55.7547 30.5644 51.8307 34.4345 51.8307C39.1472 51.8307 42.7873 56.9779 45.7141 61.1167C45.8398 61.2943 45.9641 61.4701 46.0872 61.6436ZM45.2614 68.6481C45.0887 68.9252 44.9142 69.2066 44.7377 69.4911L44.736 69.4939C43.9178 70.8133 43.058 72.1997 42.1423 73.5379C40.9107 75.3379 39.6244 76.9793 38.2908 78.1634C36.95 79.3537 35.6693 79.9864 34.4348 79.9864C33.1867 79.9864 31.9489 79.3908 30.6646 78.2713C29.3794 77.1509 28.1408 75.5868 26.9049 73.8308C26.2902 72.9574 25.6856 72.0505 25.081 71.1403L24.9584 70.9557C24.4544 70.1969 23.9496 69.4367 23.4459 68.7059C26.441 72.0866 30.1656 76.1265 34.4345 76.1265C38.6521 76.1265 42.5024 72.0039 45.2614 68.6481ZM23.691 62.377C23.0357 63.1675 22.3536 63.9249 21.6394 64.5579L21.7638 64.4942L21.7714 64.4903C24.6027 63.0396 29.0923 60.7393 34.4342 60.7393C39.6616 60.7393 43.8211 62.116 46.365 63.7342C45.9108 63.1255 45.4466 62.4702 44.9753 61.8038L44.906 61.7059L44.9059 61.7057C43.9417 60.3423 42.9262 58.9064 41.8273 57.5813C39.5309 54.812 37.11 52.8307 34.4345 52.8307C33.1426 52.8307 31.9114 53.3638 30.6789 54.3076C29.4393 55.2568 28.2637 56.5713 27.0983 58.0242C26.6145 58.6274 26.1113 59.283 25.6079 59.9388C24.9556 60.7886 24.3029 61.639 23.691 62.377ZM23.1989 66.9194L23.1302 66.8425C25.913 68.2405 29.9676 69.6477 34.4342 69.6477C39.344 69.6477 43.7559 67.4616 46.184 65.9113C46.0178 66.117 45.8477 66.3295 45.6745 66.5459L45.674 66.5465L45.6737 66.5469L45.48 66.7888C44.5519 67.9469 43.48 69.2714 42.2879 70.5287C39.8486 73.1017 37.1469 75.1265 34.4345 75.1265C31.7129 75.1265 29.103 73.1927 26.614 70.6667C25.6461 69.6843 24.7395 68.6593 23.8755 67.6824L23.8731 67.6796C23.6455 67.4223 23.4209 67.1684 23.1989 66.9194ZM46.1107 64.7636C43.8075 63.1996 39.7332 61.7393 34.4342 61.7393C29.4223 61.7393 25.2266 63.851 22.3815 65.304C24.9851 66.8097 29.452 68.6477 34.4342 68.6477C39.4328 68.6477 43.9337 66.2353 46.1107 64.7636ZM229.437 77.2331C230.524 74.5825 231.649 71.8402 232.854 69.3176C232.269 70.3976 231.666 71.576 231.045 72.7901L231.044 72.7906L231.043 72.7933L231.043 72.7943L231.042 72.7949L231.042 72.795C227.932 78.8738 224.366 85.8454 220.307 85.8454C217.033 85.8454 213.882 81.4167 211.089 76.5761C211.249 76.9576 211.408 77.3392 211.566 77.7197C212.022 78.8146 212.474 79.9003 212.923 80.9464C214.193 83.9076 215.444 86.5734 216.746 88.4915C218.093 90.4753 219.27 91.3243 220.305 91.3243C221.388 91.3243 222.544 90.5598 223.827 88.8049C225.084 87.0848 226.284 84.6546 227.505 81.8523C228.141 80.3911 228.782 78.8287 229.437 77.2331ZM230.245 50.7311C231.175 53.7315 232.121 56.7836 233.101 59.6611C232.47 58.243 231.818 56.6762 231.145 55.0576L231.144 55.0571C228.011 47.5258 224.41 38.8735 220.307 38.8735C216.494 38.8735 213.249 46.6379 210.221 53.8837L209.999 54.4154L209.775 54.951C210.656 52.3741 211.492 49.647 212.308 46.989L212.308 46.9881C212.62 45.9712 212.929 44.9643 213.236 43.9799C214.462 40.05 215.655 36.4896 216.92 33.918C217.553 32.6304 218.175 31.6526 218.784 31.0096C219.393 30.3669 219.894 30.1553 220.305 30.1553C220.778 30.1553 221.308 30.3618 221.918 30.9035C222.534 31.4506 223.17 32.2879 223.822 33.4094C225.124 35.6522 226.369 38.8235 227.613 42.4853C228.487 45.0556 229.359 47.869 230.245 50.7295L230.245 50.73L230.245 50.7304L230.245 50.7309L230.245 50.7311ZM231.793 59.1689L231.683 58.9148C231.197 57.7871 230.708 56.6125 230.211 55.4165L230.21 55.4144C229.504 53.7168 228.779 51.9757 228.019 50.2633C226.73 47.3622 225.399 44.6941 224.024 42.7625C223.337 41.7977 222.668 41.058 222.022 40.5668C221.381 40.0784 220.815 39.8735 220.307 39.8735C219.812 39.8735 219.258 40.0806 218.624 40.5865C217.987 41.0955 217.328 41.8626 216.65 42.8634C215.293 44.8669 213.984 47.6252 212.692 50.6089C212.179 51.7933 211.666 53.0214 211.155 54.2422L211.155 54.2433C210.401 56.0481 209.653 57.8369 208.923 59.4446C208.668 60.0072 208.411 60.5582 208.151 61.0902C209.482 59.0488 210.682 56.551 211.862 54.0933L211.863 54.0928C214.395 48.8203 216.839 43.7327 220.306 43.7327C224.402 43.7327 227.224 49.6502 230.107 55.695C230.663 56.8622 231.222 58.034 231.793 59.1689ZM230.461 71.7351C230.354 71.9434 230.248 72.1524 230.14 72.3622L230.138 72.366L230.137 72.3679L230.137 72.3694C229.468 73.677 228.785 75.0121 228.054 76.3581C226.767 78.7254 225.445 80.898 224.083 82.4698C222.692 84.0741 221.438 84.8454 220.307 84.8454C219.157 84.8454 217.852 84.0771 216.399 82.5084C214.975 80.971 213.574 78.8459 212.221 76.5331C211.293 74.948 210.41 73.3148 209.565 71.7508L209.564 71.7503C209.175 71.0306 208.794 70.3256 208.42 69.6466C207.985 68.8573 207.556 68.0955 207.136 67.3926C208.085 68.6302 209.032 70.057 209.998 71.5108C213.054 76.113 216.291 80.9862 220.306 80.9862C224.34 80.9862 227.888 75.739 230.793 71.0879C230.683 71.3028 230.572 71.5185 230.461 71.7351ZM230.61 59.0383C231.048 59.9222 231.495 60.7975 231.957 61.6423C231.835 61.4693 231.711 61.2941 231.586 61.1169L231.585 61.1167C228.659 56.9779 225.018 51.8307 220.306 51.8307C216.436 51.8307 213.427 55.7547 210.659 59.3643C210.232 59.9218 209.81 60.4717 209.392 60.9986C209.535 60.7663 209.675 60.5309 209.813 60.2932C210.857 58.4981 211.83 56.47 212.771 54.5106C212.987 54.0619 213.201 53.6168 213.413 53.1789C214.571 50.7919 215.688 48.6266 216.882 47.0595C218.094 45.4686 219.206 44.7327 220.306 44.7327C221.482 44.7327 222.626 45.3826 223.819 46.7202C225.011 48.0569 226.131 49.9485 227.255 52.1364C227.914 53.42 228.548 54.7485 229.191 56.0983L229.192 56.1007C229.655 57.0717 230.123 58.0538 230.61 59.0383ZM230.607 69.493L230.609 69.4903C230.785 69.2069 230.959 68.9266 231.131 68.6505C228.372 72.0058 224.522 76.1265 220.306 76.1265C216.036 76.1265 212.312 72.0858 209.316 68.7049C209.819 69.4347 210.324 70.1939 210.827 70.9517L210.827 70.952L210.827 70.9522L210.827 70.9524L210.828 70.9527L210.828 70.9529L210.828 70.9531L210.828 70.9534L210.828 70.9536L210.828 70.9538L210.828 70.954L210.829 70.9555L210.952 71.1401C211.557 72.0503 212.161 72.9572 212.776 73.8306C214.012 75.5866 215.25 77.1507 216.536 78.271C217.82 79.3906 219.058 79.9862 220.306 79.9862C221.54 79.9862 222.821 79.3535 224.162 78.1631C225.495 76.9791 226.782 75.3377 228.013 73.5377C228.928 72.2002 229.788 70.8145 230.606 69.4957L230.606 69.4945L230.607 69.4937L230.607 69.493ZM207.51 64.5589C208.224 63.9257 208.907 63.1679 209.562 62.377C210.174 61.6393 210.826 60.7892 211.478 59.9397L211.479 59.9392L211.479 59.9388L211.48 59.9378L211.48 59.9375C211.983 59.2821 212.486 58.627 212.97 58.0242C214.135 56.5713 215.311 55.2568 216.55 54.3076C217.783 53.3638 219.014 52.8307 220.306 52.8307C222.981 52.8307 225.402 54.812 227.699 57.5813C228.798 58.9065 229.813 60.3424 230.777 61.7059L230.847 61.8038C231.318 62.4698 231.782 63.1248 232.236 63.7332C229.691 62.1154 225.533 60.7393 220.306 60.7393C214.964 60.7393 210.475 63.0396 207.643 64.4903L207.51 64.5589ZM209.001 66.8417L209.07 66.9194C209.29 67.1664 209.513 67.4183 209.739 67.6734L209.747 67.6824C210.611 68.6593 211.517 69.6843 212.485 70.6667C214.974 73.1927 217.584 75.1265 220.306 75.1265C223.018 75.1265 225.72 73.1017 228.159 70.5287C229.351 69.2714 230.423 67.9469 231.351 66.7888L231.545 66.5469L231.546 66.5462C231.719 66.3301 231.888 66.1178 232.054 65.9124C229.626 67.4626 225.215 69.6477 220.306 69.6477C215.839 69.6477 211.784 68.24 209.001 66.8417ZM220.306 61.7393C225.605 61.7393 229.68 63.1996 231.983 64.7636C229.806 66.2353 225.305 68.6477 220.306 68.6477C215.324 68.6477 210.857 66.8097 208.254 65.304C211.099 63.851 215.294 61.7393 220.306 61.7393ZM138.703 55.6592C138.872 56.249 139.041 56.8284 139.209 57.3943C138.515 55.3747 137.842 53.2564 137.172 51.1483C134.289 42.081 131.467 33.2048 127.371 33.2048C123.903 33.2048 121.46 40.8362 118.927 48.7449C117.67 52.6714 116.391 56.6662 114.954 59.8294C115.316 58.7608 115.675 57.6224 116.032 56.4413C116.76 54.0346 117.502 51.3746 118.253 48.6791L118.253 48.6787L118.253 48.6779C118.764 46.8454 119.279 44.9964 119.798 43.1993C121.091 38.7193 122.415 34.5299 123.796 31.4702C124.488 29.9363 125.169 28.7454 125.831 27.9531C126.51 27.1393 127.023 26.9149 127.37 26.9149C127.734 26.9149 128.257 27.1413 128.938 27.9202C129.605 28.6816 130.295 29.8275 130.998 31.3072C132.399 34.259 133.744 38.3133 135.036 42.6745C135.798 45.2448 136.528 47.8791 137.238 50.4375L137.238 50.4386L137.24 50.4452L137.244 50.4593L137.248 50.4751L137.249 50.4788L137.252 50.4893C137.745 52.2652 138.227 54.0042 138.703 55.6592ZM117.062 74.8717C115.949 72.3559 114.859 69.8942 113.763 67.8599C114.335 69.2081 114.931 70.7793 115.545 72.4535C115.916 73.4625 116.295 74.5149 116.683 75.5917L116.683 75.592L116.684 75.5923L116.684 75.5927C117.531 77.9436 118.421 80.4111 119.352 82.7984C120.711 86.2817 122.129 89.5132 123.579 91.8612C124.305 93.0364 125.01 93.9429 125.684 94.5454C126.361 95.1509 126.918 95.3727 127.37 95.3727C127.809 95.3727 128.349 95.1527 129.006 94.5358C129.66 93.9214 130.34 92.9951 131.035 91.7914C132.425 89.387 133.764 86.0801 135.055 82.5175C135.784 80.5064 136.476 78.4766 137.15 76.4986L137.15 76.4977L137.151 76.4962L137.151 76.496C137.522 75.4091 137.887 74.3378 138.25 73.2939C135.274 80.4834 131.588 89.085 127.371 89.085C123.355 89.085 120.119 81.7752 117.063 74.8719L117.062 74.8717ZM138.61 69.8209C138.55 69.9627 138.49 70.1055 138.43 70.2491C138.159 70.8956 137.883 71.5635 137.601 72.245L137.601 72.2459C136.782 74.2278 135.915 76.3248 134.994 78.3443C133.753 81.0628 132.449 83.5633 131.091 85.3717C129.69 87.2373 128.442 88.085 127.371 88.085C126.282 88.085 125.079 87.2899 123.738 85.5355C122.428 83.8231 121.171 81.4388 119.928 78.7901C119.31 77.4726 118.703 76.1058 118.098 74.7409L117.976 74.465C117.414 73.1958 116.854 71.9308 116.296 70.7272C116.134 70.3788 115.972 70.0338 115.809 69.6937L116.054 70.1084C119.103 75.281 122.945 81.7962 127.371 81.7962C131.803 81.7962 135.829 74.9676 138.61 69.8209ZM138.662 59.3047L138.652 59.2849L138.651 59.2815C135.724 53.0734 132.084 45.3525 127.371 45.3525C123.501 45.3525 120.492 51.2385 117.725 56.653L117.724 56.6532L117.724 56.6532C117.13 57.8169 116.546 58.9587 115.967 60.0157C116.306 59.2579 116.631 58.4655 116.946 57.6531C117.979 54.986 118.943 51.9752 119.884 49.0375C120.1 48.3618 120.315 47.6899 120.53 47.027C121.687 43.4487 122.821 40.1441 124.043 37.7386C124.655 36.535 125.258 35.6183 125.853 35.0145C126.444 34.4141 126.942 34.2048 127.371 34.2048C128.364 34.2048 129.499 35.0605 130.771 37.1988C131.994 39.2574 133.134 42.1523 134.263 45.4489C134.923 47.3769 135.564 49.3924 136.212 51.4296L136.213 51.4353C136.676 52.8909 137.142 54.3576 137.622 55.8112C138.192 57.5413 138.778 59.2399 139.387 60.838C139.154 60.3499 138.917 59.846 138.674 59.3315L138.674 59.3314L138.665 59.313L138.664 59.3104L138.662 59.3047ZM138.502 67.9058L138.503 67.904C138.834 67.2838 139.15 66.6914 139.447 66.1542C137.103 68.4853 132.509 72.0781 127.37 72.0781C122.723 72.0781 118.522 69.7934 115.735 67.6165C115.905 67.8969 116.076 68.1831 116.249 68.473C116.47 68.8448 116.694 69.2252 116.922 69.6113L116.922 69.6116L116.922 69.6122C117.787 71.0784 118.7 72.6277 119.674 74.1103C120.906 75.9856 122.193 77.6888 123.528 78.915C124.871 80.1492 126.148 80.7962 127.371 80.7962C128.583 80.7962 129.88 80.123 131.246 78.8376C132.599 77.565 133.899 75.8054 135.105 73.8973C136.307 71.9956 137.386 69.9942 138.315 68.2565L138.502 67.9062L138.502 67.9058ZM139.4 64.7608C138.547 65.6912 137.11 67.0606 135.296 68.289C133.025 69.8264 130.26 71.0781 127.37 71.0781C122.064 71.0781 117.298 67.8655 114.821 65.5162C115.005 65.376 115.195 65.2302 115.39 65.0799C116.519 64.211 117.844 63.1913 119.445 62.2299C121.768 60.834 124.455 59.7154 127.37 59.7154C132.948 59.7154 137.19 62.191 139.4 64.7608ZM93.9528 57.6031C93.6204 56.3666 93.2842 55.0571 92.9443 53.6995C92.4392 51.6819 91.9254 49.5559 91.4002 47.3832L91.3995 47.3801L91.3982 47.3747L91.3979 47.3735L91.3976 47.3722C90.6461 44.263 89.8716 41.0581 89.0663 37.9378C87.6997 32.6427 86.2718 27.7026 84.7812 24.0982C84.0338 22.2907 83.2939 20.8775 82.573 19.9326C81.8235 18.9502 81.2647 18.6919 80.9135 18.6919C80.5819 18.6919 80.0305 18.9479 79.2829 19.9761C78.5678 20.9596 77.8377 22.428 77.1011 24.3009C75.6323 28.0356 74.2277 33.1392 72.86 38.5768C72.3098 40.7645 71.7645 43.0106 71.2245 45.2349L71.2245 45.2352L71.2244 45.2354C70.431 48.5036 69.649 51.7247 68.8795 54.6445C68.4222 56.3796 67.9633 58.0331 67.5011 59.5492C69.1366 55.6102 70.5739 50.4583 71.9852 45.3999L71.9852 45.3998C74.6631 35.8012 77.2471 26.5391 80.9135 26.5391C85.2451 26.5391 88.2293 37.3119 91.2778 48.3166L91.2778 48.3167L91.2779 48.3169L91.2779 48.3169L91.2779 48.317L91.2779 48.3171L91.2779 48.3172L91.278 48.3173L91.278 48.3173L91.278 48.3174C92.1532 51.4767 93.0336 54.6551 93.9528 57.6031ZM66.1345 67.7886C67.4242 70.3988 68.703 73.7136 70.013 77.1095C73.2452 85.4878 76.6677 94.3596 80.9135 94.3596C85.5147 94.3596 89.5178 83.2461 92.7157 74.3683L92.9208 73.7991C92.3882 75.5224 91.8508 77.3311 91.3018 79.179L91.3008 79.1825L91.3005 79.1835L91.3002 79.1844C90.5853 81.5908 89.8506 84.0638 89.0809 86.5014C87.7149 90.8279 86.2925 94.8618 84.8121 97.8021C84.0704 99.2754 83.341 100.419 82.6349 101.18C81.9178 101.953 81.3468 102.205 80.9135 102.205C80.4664 102.205 79.8791 101.95 79.1422 101.194C78.4164 100.449 77.6599 99.3314 76.8859 97.8931C75.341 95.0222 73.8349 91.0805 72.3966 86.8492C71.4103 83.9478 70.4676 80.9462 69.5708 78.0906C69.1606 76.7848 68.7601 75.5094 68.3694 74.2882C67.5884 71.8473 66.8402 69.6001 66.1345 67.7886ZM92.6447 71.6249C92.8307 71.1154 93.0147 70.6154 93.1966 70.1288C90.2496 76.4434 85.8163 85.5125 80.9136 85.5125C76.2329 85.5125 72.171 77.6053 68.9461 71.3276L68.9461 71.3276L68.946 71.3274L68.946 71.3274C68.6845 70.8184 68.4286 70.3201 68.1783 69.8377C68.5111 70.6053 68.8415 71.4017 69.1701 72.2151C69.7594 73.6736 70.3508 75.2066 70.9452 76.7475L71.0742 77.0819C71.7134 78.7383 72.3567 80.3998 73.0117 82.002C74.3276 85.2207 75.6652 88.1353 77.0639 90.2344C77.7626 91.2828 78.4471 92.0825 79.1134 92.6122C79.7739 93.1374 80.3667 93.3596 80.9135 93.3596C81.4437 93.3596 82.044 93.1283 82.7308 92.5626C83.4197 91.9951 84.1315 91.1419 84.8563 90.034C86.3059 87.8185 87.6938 84.7632 89.0074 81.4582C89.9835 79.0023 90.9028 76.4504 91.7695 74.0442L91.7697 74.0437L91.7701 74.0427L91.7703 74.042C92.0679 73.2159 92.3593 72.4069 92.6447 71.6249ZM92.8424 58.1892C93.2544 59.1923 93.6531 60.1627 94.0392 61.0741C92.717 57.2602 91.4923 52.8397 90.2899 48.4994L90.2898 48.499C89.6054 46.0286 88.9282 43.5841 88.2443 41.2922C87.0495 37.288 85.8372 33.7503 84.5299 31.2262C83.8756 29.9631 83.2264 29.0116 82.5875 28.3875C81.954 27.7687 81.4035 27.5391 80.9135 27.5391C80.4939 27.5391 79.9649 27.7768 79.3141 28.5351C78.6686 29.2873 78.019 30.4225 77.3664 31.8968C76.0638 34.8393 74.8592 38.8719 73.6359 43.2126C73.4099 44.0144 73.1834 44.8262 72.9558 45.6421L72.9534 45.6508L72.9516 45.6572C71.9571 49.2222 70.9408 52.8651 69.8511 56.0927C69.3743 57.505 68.876 58.8621 68.3488 60.1148C69.1263 58.5585 69.9094 56.8003 70.7117 54.9989L70.712 54.9983L70.7124 54.9975L70.7125 54.9973L70.7126 54.9969L70.7127 54.9968C73.6394 48.4254 76.8211 41.2817 80.9136 41.2817C85.8972 41.2817 89.7464 50.6524 92.8415 58.187L92.8415 58.1871L92.8424 58.1892ZM92.7063 68.8129L92.706 68.8135L92.7059 68.8138L92.5125 69.2296C91.5306 71.3386 90.3856 73.7753 89.1098 76.0918C87.8297 78.4164 86.4458 80.5678 85.0024 82.1262C83.5351 83.7105 82.1638 84.5125 80.9136 84.5125C79.6511 84.5125 78.3017 83.7421 76.8596 82.2213C75.4359 80.7197 74.0652 78.6373 72.7583 76.3539C71.7251 74.5487 70.7555 72.6612 69.8409 70.8808L69.8375 70.8742C69.5983 70.4086 69.3628 69.9503 69.131 69.5027C68.886 69.0297 68.6436 68.5658 68.4043 68.1172C71.3481 70.8133 75.8834 73.7179 80.9128 73.7179C86.516 73.7179 91.506 69.0826 93.9077 66.2694C93.5391 67.0224 93.1361 67.8888 92.707 68.8114L92.7063 68.8129ZM89.2734 69.3346C91.306 67.7551 92.8953 65.9816 93.7816 64.844C91.4548 61.6099 86.8935 58.5 80.9128 58.5C77.8532 58.5 75.0204 59.8485 72.5551 61.5484C70.8605 62.7169 69.4525 63.9603 68.2568 65.0161L68.2557 65.0171C67.9739 65.266 67.7039 65.5044 67.4446 65.729C68.6006 67.0251 70.3088 68.5998 72.3802 69.9273C74.8697 71.5228 77.815 72.7179 80.9128 72.7179C83.9438 72.7179 86.8607 71.2095 89.2734 69.3346ZM188.349 69.3983C186.613 74.9677 185.047 81.5402 183.532 87.8946C182.835 90.8216 182.148 93.7023 181.461 96.4174C180.168 101.531 178.876 106.048 177.505 109.276C176.819 110.894 176.138 112.126 175.468 112.937C174.789 113.759 174.25 114 173.848 114C173.497 114 172.957 113.753 172.242 112.794C171.55 111.867 170.848 110.475 170.14 108.678C168.727 105.096 167.384 100.156 166.04 94.7623C165.559 92.8334 165.079 90.8456 164.595 88.8477L164.595 88.8476C164.286 87.567 163.975 86.2822 163.663 85.0061C166.722 94.3176 170.214 103.205 173.849 103.205C178.141 103.205 181.913 90.5125 185.201 79.446L185.201 79.4457C186.305 75.7334 187.353 72.2042 188.349 69.3983ZM187.797 57.1292C187.001 54.1514 186.172 50.7219 185.309 47.1543L185.309 47.1541L185.309 47.154C181.995 33.4432 178.188 17.6917 173.849 17.6917C169.817 17.6917 166.386 31.8268 163.184 45.0179L163.182 45.0246L163.18 45.0326L163.175 45.0551L163.174 45.056C162.824 46.499 162.477 47.9304 162.131 49.3307C162.195 49.0235 162.259 48.715 162.322 48.4052C163.386 43.2073 164.386 37.6002 165.361 32.1261L165.362 32.1256C165.692 30.2696 166.02 28.4289 166.347 26.6246C167.642 19.4771 168.918 12.9131 170.281 8.14177C170.964 5.74905 171.653 3.86905 172.348 2.60585C172.696 1.9735 173.019 1.54713 173.301 1.28954C173.578 1.03747 173.755 1 173.848 1C174.143 1 174.682 1.24304 175.419 2.36878C176.119 3.43889 176.826 5.0519 177.533 7.15007C178.945 11.3331 180.279 17.1975 181.597 23.8755C182.533 28.6221 183.461 33.7776 184.401 38.9994L184.401 38.9999L184.401 39.0004L184.401 39.0013L184.401 39.0023L184.401 39.0033L184.402 39.0057L184.402 39.0063C185.506 45.1408 186.626 51.3668 187.797 57.1292ZM185.88 53.6993C186.222 55.0658 186.56 56.3836 186.895 57.6273C185.973 54.6725 185.09 51.4854 184.213 48.3175L184.213 48.3169C181.164 37.3122 178.18 26.5393 173.848 26.5393C170.182 26.5393 167.598 35.8014 164.92 45.4C163.51 50.4553 162.073 55.6039 160.439 59.542C160.9 58.0278 161.359 56.3768 161.815 54.6443C162.585 51.7245 163.367 48.5034 164.16 45.2353C164.7 43.0108 165.245 40.7645 165.796 38.5767C167.163 33.139 168.568 28.0354 170.037 24.3007C170.773 22.4279 171.503 20.9594 172.219 19.9759C172.966 18.9478 173.518 18.6917 173.849 18.6917C174.2 18.6917 174.759 18.95 175.509 19.9325C176.23 20.8774 176.969 22.2905 177.717 24.098C179.207 27.7025 180.635 32.6425 182.002 37.9376C182.807 41.058 183.582 44.2628 184.333 47.3721C184.859 49.5486 185.374 51.6783 185.88 53.6993ZM162.948 77.1093C161.639 73.718 160.362 70.4075 159.074 67.799C159.779 69.6087 160.526 71.8519 161.305 74.2881C161.696 75.5087 162.096 76.7833 162.506 78.0884L162.506 78.0905C163.403 80.946 164.346 83.9476 165.332 86.8491C166.771 91.0804 168.277 95.022 169.822 97.893C170.596 99.3313 171.352 100.449 172.078 101.194C172.815 101.95 173.402 102.205 173.849 102.205C174.282 102.205 174.853 101.953 175.57 101.18C176.277 100.418 177.006 99.2752 177.748 97.8019C179.228 94.8616 180.651 90.8278 182.017 86.5012C182.786 84.0636 183.521 81.5907 184.236 79.1843L184.236 79.1834L184.236 79.1824L184.237 79.1809L184.239 79.1731L184.239 79.1722L184.24 79.1701C184.79 77.3196 185.328 75.5086 185.861 73.7834L185.65 74.3685C182.453 83.2463 178.449 94.3598 173.848 94.3598C169.602 94.3598 166.18 85.488 162.948 77.1097L162.948 77.1093ZM186.128 70.1378C185.947 70.6216 185.764 71.1186 185.579 71.6251C185.294 72.4071 185.003 73.216 184.705 74.0422L184.705 74.0429L184.704 74.0458C183.837 76.4516 182.918 79.003 181.942 81.4584C180.629 84.7634 179.241 87.8186 177.791 90.0342C177.066 91.1421 176.354 91.9953 175.665 92.5628C174.979 93.1285 174.378 93.3598 173.848 93.3598C173.301 93.3598 172.709 93.1376 172.048 92.6124C171.382 92.0827 170.697 91.283 169.999 90.2346C168.6 88.1355 167.262 85.2209 165.946 82.0022C165.291 80.4 164.648 78.7385 164.009 77.0821L163.88 76.7477C163.286 75.2068 162.694 73.6738 162.105 72.2153C161.775 71.3987 161.443 70.5991 161.109 69.8286C161.358 70.3087 161.613 70.8044 161.873 71.3109L161.877 71.3184L161.881 71.3274L161.882 71.3276C165.106 77.6053 169.168 85.5127 173.849 85.5127C178.75 85.5127 183.181 76.4519 186.128 70.1378ZM186.97 61.0641C186.585 60.155 186.188 59.1873 185.777 58.1873L185.777 58.1872C182.682 50.6526 178.833 41.282 173.849 41.282C169.757 41.282 166.575 48.4257 163.648 54.997C162.844 56.8031 162.059 58.5659 161.279 60.1253C161.808 58.8697 162.308 57.509 162.786 56.0929C163.875 52.8656 164.892 49.2229 165.886 45.6582L165.886 45.6574C166.115 44.8364 166.343 44.0195 166.571 43.2128C167.794 38.8721 168.999 34.8395 170.301 31.897C170.954 30.4227 171.603 29.2875 172.249 28.5353C172.9 27.777 173.429 27.5393 173.848 27.5393C174.338 27.5393 174.889 27.7689 175.522 28.3877C176.161 29.0118 176.81 29.9633 177.465 31.2264C178.772 33.7505 179.984 37.2882 181.179 41.2924C181.863 43.5843 182.54 46.0288 183.225 48.4992C184.426 52.8358 185.649 57.2523 186.97 61.0641ZM185.641 68.814C186.071 67.8913 186.474 67.0247 186.842 66.2715C184.44 69.0849 179.451 73.7179 173.849 73.7179C168.819 73.7179 164.282 70.812 161.339 68.1154C161.578 68.5647 161.821 69.0292 162.067 69.5029C162.299 69.9526 162.536 70.4131 162.776 70.8811C163.691 72.6615 164.661 74.5489 165.694 76.3541C167.001 78.6375 168.371 80.7199 169.795 82.2215C171.237 83.7423 172.587 84.5127 173.849 84.5127C175.099 84.5127 176.471 83.7107 177.938 82.1264C179.381 80.568 180.765 78.4166 182.045 76.092C183.321 73.7755 184.466 71.3388 185.448 69.2298L185.641 68.814ZM186.718 64.844C185.832 65.9816 184.242 67.7551 182.21 69.3346C179.797 71.2095 176.88 72.7179 173.849 72.7179C170.751 72.7179 167.806 71.5228 165.317 69.9273C163.245 68.5998 161.537 67.0251 160.381 65.729C160.64 65.5045 160.91 65.2661 161.192 65.0173L161.192 65.0171L161.193 65.0161C162.389 63.9603 163.797 62.7169 165.492 61.5484C167.957 59.8485 170.79 58.5 173.849 58.5C179.83 58.5 184.391 61.6099 186.718 64.844Z" fill="url(#paint0_linear_70_196)"/>
<defs>
<linearGradient id="paint0_linear_70_196" x1="1.1042e-06" y1="64.7887" x2="254" y2="65.1273" gradientUnits="userSpaceOnUse">
<stop stop-color="#00C6C0"/>
<stop offset="0.42" stop-color="#4D52DF"/>
<stop offset="0.6" stop-color="#C21761"/>
<stop offset="1" stop-color="#FFB827"/>
</linearGradient>
</defs>
</svg>
